<?xml version="1.0" encoding="UTF-8" standalone="no"?>
<!-- Created with Inkscape (http://www.inkscape.org/) -->

<svg
   xmlns:dc="http://purl.org/dc/elements/1.1/"
   xmlns:cc="http://creativecommons.org/ns#"
   xmlns:rdf="http://www.w3.org/1999/02/22-rdf-syntax-ns#"
   xmlns:svg="http://www.w3.org/2000/svg"
   xmlns="http://www.w3.org/2000/svg"
   xmlns:xlink="http://www.w3.org/1999/xlink"
   xmlns:sodipodi="http://sodipodi.sourceforge.net/DTD/sodipodi-0.dtd"
   xmlns:inkscape="http://www.inkscape.org/namespaces/inkscape"
   version="1.0"
   width="600"
   height="199.41692"
   id="svg2424"
   inkscape:version="0.48.3.1 r9886"
   sodipodi:docname="banner.svg">
  <metadata
     id="metadata37">
    <rdf:RDF>
      <cc:Work
         rdf:about="">
        <dc:format>image/svg+xml</dc:format>
        <dc:type
           rdf:resource="http://purl.org/dc/dcmitype/StillImage" />
        <dc:title></dc:title>
      </cc:Work>
    </rdf:RDF>
  </metadata>
  <sodipodi:namedview
     pagecolor="#ffffff"
     bordercolor="#666666"
     borderopacity="1"
     objecttolerance="10"
     gridtolerance="10"
     guidetolerance="10"
     inkscape:pageopacity="0"
     inkscape:pageshadow="2"
     inkscape:window-width="1440"
     inkscape:window-height="853"
     id="namedview35"
     showgrid="false"
     showguides="true"
     inkscape:guide-bbox="true"
     inkscape:zoom="0.7071068"
     inkscape:cx="637.36301"
     inkscape:cy="354.97176"
     inkscape:window-x="0"
     inkscape:window-y="60"
     inkscape:window-maximized="1"
     inkscape:current-layer="layer3">
    <sodipodi:guide
       orientation="-0.190809,0.98162718"
       position="229.4451,-156.93904"
       id="guide3068" />
    <sodipodi:guide
       orientation="0,1"
       position="215.30297,-159.56306"
       id="guide3070" />
    <sodipodi:guide
       orientation="0,1"
       position="217.87728,-99.834638"
       id="guide3072" />
    <sodipodi:guide
       orientation="1,0"
       position="229.34375,-100.29687"
       id="guide3074" />
    <sodipodi:guide
       orientation="1,0"
       position="386.96418,-59.750521"
       id="guide3081" />
    <sodipodi:guide
       orientation="1,0"
       position="222.56186,-109.33639"
       id="guide3857" />
    <sodipodi:guide
       orientation="0,1"
       position="299.49999,-21.499999"
       id="guide3028" />
    <sodipodi:guide
       orientation="1,0"
       position="375.82724,-27.75394"
       id="guide3036" />
    <sodipodi:guide
       orientation="1,0"
       position="437.99999,657.99998"
       id="guide3038" />
    <sodipodi:guide
       orientation="0,1"
       position="451.24999,248.99999"
       id="guide3865" />
    <sodipodi:guide
       orientation="0,1"
       position="674.99998,431.99999"
       id="guide3871" />
    <sodipodi:guide
       orientation="0,1"
       position="751.99998,482.99999"
       id="guide3923" />
  </sodipodi:namedview>
  <defs
     id="defs2426">
    <linearGradient
       x1="112.49854"
       y1="6.1372099"
       x2="112.49853"
       y2="129.3468"
       id="path1082_2_"
       gradientUnits="userSpaceOnUse"
       gradientTransform="translate(287,-83)">
      <stop
         id="stop193"
         style="stop-color:#ffffff;stop-opacity:0"
         offset="0" />
      <stop
         id="stop195"
         style="stop-color:#ffffff;stop-opacity:0.27450982"
         offset="1" />
      <midPointStop
         offset="0"
         style="stop-color:#FFFFFF"
         id="midPointStop197" />
      <midPointStop
         offset="0.5"
         style="stop-color:#FFFFFF"
         id="midPointStop199" />
      <midPointStop
         offset="1"
         style="stop-color:#000000"
         id="midPointStop201" />
    </linearGradient>
    <linearGradient
       x1="541.33502"
       y1="104.50665"
       x2="606.91248"
       y2="303.14029"
       id="linearGradient2544"
       xlink:href="#path1082_2_"
       gradientUnits="userSpaceOnUse"
       gradientTransform="matrix(-0.3937741,0,0,0.393752,357.51969,122.00151)" />
    <linearGradient
       id="linearGradient3388">
      <stop
         id="stop3390"
         style="stop-color:#000000;stop-opacity:0"
         offset="0" />
      <stop
         id="stop3392"
         style="stop-color:#000000;stop-opacity:0.37113401"
         offset="1" />
    </linearGradient>
    <linearGradient
       x1="490.72305"
       y1="237.72447"
       x2="490.72305"
       y2="183.9644"
       id="linearGradient4416"
       xlink:href="#linearGradient3388"
       gradientUnits="userSpaceOnUse"
       gradientTransform="matrix(0.749107,0,0,0.749107,-35.459862,91.44108)" />
  </defs>
  <text
     xml:space="preserve"
     style="font-size:36px;font-style:normal;font-weight:normal;line-height:864.00003433%;letter-spacing:0px;word-spacing:0px;fill:#000000;fill-opacity:1;stroke:none;font-family:Sans"
     x="435"
     y="423.4169"
     id="text3863"
     sodipodi:linespacing="864.00003%"><tspan
       sodipodi:role="line"
       id="tspan3865" /></text>
  <g
     inkscape:groupmode="layer"
     id="layer1"
     inkscape:label="eclipseartifacts (font)"
     style="display:inline">
    <g
       id="g3926">
      <text
         xml:space="preserve"
         style="font-size:115px;font-style:normal;font-weight:normal;line-height:864.00003433%;letter-spacing:0px;word-spacing:0px;fill:#1793d1;fill-opacity:1;stroke:none;font-family:Sans"
         x="789.62866"
         y="-283.58307"
         id="text3867"
         sodipodi:linespacing="864.00003%"><tspan
           sodipodi:role="line"
           id="tspan3869"
           x="789.62866"
           y="-283.58307"
           style="font-size:115px;font-style:normal;font-variant:normal;font-weight:normal;font-stretch:normal;text-align:start;line-height:864.00003433%;writing-mode:lr-tb;text-anchor:start;fill:#1793d1;fill-opacity:1;font-family:KaratDemo;-inkscape-font-specification:KaratDemo">artifacts</tspan></text>
      <text
         sodipodi:linespacing="864.00003%"
         id="text3852"
         y="-284.54486"
         x="490.79276"
         style="font-size:36px;font-style:normal;font-weight:normal;line-height:864.00003433%;letter-spacing:0px;word-spacing:0px;fill:#4d4d4d;fill-opacity:1;stroke:none;font-family:Sans"
         xml:space="preserve"><tspan
           style="font-size:100px;font-style:normal;font-variant:normal;font-weight:normal;font-stretch:normal;text-align:start;line-height:864.00003433%;writing-mode:lr-tb;text-anchor:start;fill:#4d4d4d;fill-opacity:1;font-family:KaratDemo;-inkscape-font-specification:KaratDemo"
           y="-284.54486"
           x="490.79276"
           id="tspan3854"
           sodipodi:role="line">eclipse</tspan></text>
    </g>
  </g>
  <g
     inkscape:groupmode="layer"
     id="layer3"
     inkscape:label="eclipseartifacts (objectified)"
     style="display:inline">
    <g
       style="display:inline"
       id="g3932"
       transform="translate(-21.28427,245.64675)"
       inkscape:export-filename="/home/slopjong/workspaces/eclipse-artifacts/resources/banner/banner.png"
       inkscape:export-xdpi="87.800003"
       inkscape:export-ydpi="87.800003">
      <g
         style="font-size:115px;font-style:normal;font-weight:normal;line-height:864.00003433%;letter-spacing:0px;word-spacing:0px;fill:#1793d1;fill-opacity:1;stroke:none;font-family:Sans"
         id="text3934">
        <path
           d="m 827.80866,-303.13307 c -4e-5,-1.99331 -0.34504,-3.83331 -1.035,-5.52 -0.61337,-1.76331 -1.53337,-3.29664 -2.76,-4.6 -1.15003,-1.3033 -2.6067,-2.3383 -4.37,-3.105 -1.76336,-0.76663 -3.75669,-1.14996 -5.98,-1.15 -2.07002,4e-5 -4.06335,0.34503 -5.98,1.035 -1.84001,0.69003 -3.48835,1.6867 -4.945,2.99 -1.38001,1.30336 -2.49168,2.91336 -3.335,4.83 -0.84334,1.84002 -1.26501,3.98669 -1.265,6.44 -10e-6,1.99335 0.42166,3.83335 1.265,5.52 0.91999,1.61001 2.10832,2.99001 3.565,4.14 1.45665,1.15001 3.14332,2.07001 5.06,2.76 1.91665,0.61334 3.90998,0.92001 5.98,0.92 1.91664,10e-6 3.67997,-0.34499 5.29,-1.035 1.68664,-0.68999 3.1433,-1.64832 4.37,-2.875 1.3033,-1.22666 2.29997,-2.72165 2.99,-4.485 0.76663,-1.76332 1.14996,-3.71831 1.15,-5.865 m 0,20.93 0,-7.245 -0.23,0 c -1.2267,2.22334 -3.0667,3.98667 -5.52,5.29 -2.45336,1.30333 -5.36669,1.955 -8.74,1.955 -2.91335,0 -5.71168,-0.46 -8.395,-1.38 -2.60668,-0.92 -4.90667,-2.22333 -6.9,-3.91 -1.99334,-1.76333 -3.60334,-3.87166 -4.83,-6.325 -1.15,-2.52999 -1.725,-5.36665 -1.725,-8.51 0,-3.29664 0.53667,-6.28664 1.61,-8.97 1.07333,-2.75997 2.53,-5.05997 4.37,-6.9 1.91666,-1.91663 4.13999,-3.37329 6.67,-4.37 2.52999,-1.07329 5.28998,-1.60996 8.28,-1.61 2.75998,4e-5 5.44331,0.61337 8.05,1.84 2.6833,1.22671 5.13663,2.8367 7.36,4.83 l 0,-9.66 c -4e-5,-1.30329 -0.38337,-2.49162 -1.15,-3.565 -0.69003,-1.07328 -1.6867,-1.99328 -2.99,-2.76 -1.2267,-0.84328 -2.68336,-1.45661 -4.37,-1.84 -1.61003,-0.45995 -3.29669,-0.68995 -5.06,-0.69 -1.53335,5e-5 -3.10502,0.19172 -4.715,0.575 -1.53335,0.38339 -3.06668,0.84339 -4.6,1.38 -1.45668,0.46005 -2.83668,0.95838 -4.14,1.495 -1.30334,0.46005 -2.41501,0.84338 -3.335,1.15 l 2.185,-7.82 c 2.75999,-1.07328 5.44332,-1.91661 8.05,-2.53 2.68331,-0.61327 5.55831,-0.91994 8.625,-0.92 2.29997,6e-5 4.5233,0.30673 6.67,0.92 2.2233,0.61339 4.1783,1.53339 5.865,2.76 1.68663,1.15006 3.02829,2.64505 4.025,4.485 1.07329,1.84005 1.60996,4.02505 1.61,6.555 l 0,44.39 -6.67,1.38"
           style="font-variant:normal;font-stretch:normal;text-align:start;line-height:864.00003433%;writing-mode:lr-tb;text-anchor:start;fill:#1793d1;font-family:KaratDemo;-inkscape-font-specification:KaratDemo"
           id="path3948"
           inkscape:connector-curvature="0"
           sodipodi:nodetypes="ccccccccscccccccccccsscccscccccccccccccccccccccccc" />
        <path
           d="m 872.12499,-335.90807 c -0.38336,-0.0766 -0.80503,-0.11495 -1.265,-0.115 -0.46003,5e-5 -0.84336,5e-5 -1.15,0 -1.99336,5e-5 -3.98669,0.57505 -5.98,1.725 -1.91669,1.15005 -3.64169,2.76005 -5.175,4.83 -1.53335,2.07004 -2.79835,4.56171 -3.795,7.475 -0.92001,2.8367 -1.38001,5.98003 -1.38,9.43 l 0,28.98 -6.67,1.38 0,-59.11 6.67,-1.38 0,12.88 0.23,0 c 0.91999,-2.06995 1.95499,-3.90995 3.105,-5.52 1.14998,-1.60995 2.56831,-2.95161 4.255,-4.025 1.68664,-1.14994 3.64164,-1.99327 5.865,-2.53 2.29997,-0.53661 5.02164,-0.80494 8.165,-0.805 l -2.875,6.785"
           style="font-variant:normal;font-stretch:normal;text-align:start;line-height:864.00003433%;writing-mode:lr-tb;text-anchor:start;fill:#1793d1;font-family:KaratDemo;-inkscape-font-specification:KaratDemo"
           id="path3950"
           inkscape:connector-curvature="0" />
        <path
           d="m 903.21452,-283.35307 c -1.45669,0.23 -2.56836,0.38333 -3.335,0.46 -0.69003,0.15333 -1.57169,0.23 -2.645,0.23 -5.52002,0 -9.66001,-1.495 -12.42,-4.485 -2.68334,-2.98999 -4.02501,-7.01499 -4.025,-12.075 l 0,-35.42 -7.705,0 1.61,-6.67 6.095,0 0,-14.145 6.67,-3.68 0,17.825 15.64,0 0,6.67 -15.64,0 0,35.42 c -10e-6,3.75668 0.80499,6.36334 2.415,7.82 1.68665,1.38001 4.40831,2.07001 8.165,2.07 0.84331,1e-5 1.60997,1e-5 2.3,0 0.76664,1e-5 1.72497,-0.0767 2.875,-0.23 l 0,6.21 0,0"
           style="font-variant:normal;font-stretch:normal;text-align:start;line-height:864.00003433%;writing-mode:lr-tb;text-anchor:start;fill:#1793d1;font-family:KaratDemo;-inkscape-font-specification:KaratDemo"
           id="path3952"
           inkscape:connector-curvature="0" />
        <path
           d="m 913.83405,-282.20307 0,-59.11 6.67,-1.38 0,59.11 -6.67,1.38 m 2.76,-72.68 -5.29,-5.98 5.29,-5.98 5.29,5.98 -5.29,5.98"
           style="font-variant:normal;font-stretch:normal;text-align:start;line-height:864.00003433%;writing-mode:lr-tb;text-anchor:start;fill:#1793d1;font-family:KaratDemo;-inkscape-font-specification:KaratDemo"
           id="path3954"
           inkscape:connector-curvature="0" />
        <path
           d="m 964.39452,-360.17307 c -3.9867,8e-5 -7.13003,0.23008 -9.43,0.69 -2.30002,0.46008 -4.02502,1.22674 -5.175,2.3 -1.15002,1.07341 -1.87835,2.53007 -2.185,4.37 -0.30668,1.7634 -0.46002,3.9484 -0.46,6.555 l 0,4.945 16.445,0 0,6.67 -16.445,0 0,51.06 -6.67,1.38 0,-52.44 -7.82,0 1.61,-6.67 6.21,0 0,-5.98 c -10e-6,-3.7566 0.49832,-6.89993 1.495,-9.43 0.99666,-2.52992 2.41499,-4.52325 4.255,-5.98 1.91665,-1.53325 4.25498,-2.60658 7.015,-3.22 2.75998,-0.61325 5.90331,-0.91992 9.43,-0.92 l 1.725,6.67 0,0"
           style="font-variant:normal;font-stretch:normal;text-align:start;line-height:864.00003433%;writing-mode:lr-tb;text-anchor:start;fill:#1793d1;font-family:KaratDemo;-inkscape-font-specification:KaratDemo"
           id="path3956"
           inkscape:connector-curvature="0" />
        <path
           d="m 1000.0841,-303.13307 c -1e-4,-1.99331 -0.34509,-3.83331 -1.03505,-5.52 -0.61337,-1.76331 -1.53337,-3.29664 -2.76,-4.6 -1.15003,-1.3033 -2.6067,-2.3383 -4.37,-3.105 -1.76336,-0.76663 -3.75669,-1.14996 -5.98,-1.15 -2.07002,4e-5 -4.06335,0.34503 -5.98,1.035 -1.84001,0.69003 -3.48835,1.6867 -4.945,2.99 -1.38001,1.30336 -2.49167,2.91336 -3.335,4.83 -0.84334,1.84002 -1.26501,3.98669 -1.265,6.44 -10e-6,1.99335 0.42166,3.83335 1.265,5.52 0.91999,1.61001 2.10832,2.99001 3.565,4.14 1.45665,1.15001 3.14332,2.07001 5.06,2.76 1.91665,0.61334 3.90998,0.92001 5.98,0.92 1.91664,10e-6 3.67997,-0.34499 5.29,-1.035 1.68664,-0.68999 3.1433,-1.64832 4.37,-2.875 1.3033,-1.22666 2.29997,-2.72165 2.99,-4.485 0.76663,-1.76332 1.14995,-3.71831 1.15005,-5.865 m 0,20.93 0,-7.245 -0.23005,0 c -1.2267,2.22334 -3.0667,3.98667 -5.52,5.29 -2.45336,1.30333 -5.36669,1.955 -8.74,1.955 -2.91335,0 -5.71168,-0.46 -8.395,-1.38 -2.60668,-0.92 -4.90667,-2.22333 -6.9,-3.91 -1.99334,-1.76333 -3.60334,-3.87166 -4.83,-6.325 -1.15,-2.52999 -1.725,-5.36665 -1.725,-8.51 0,-3.29664 0.53667,-6.28664 1.61,-8.97 1.07333,-2.75997 2.53,-5.05997 4.37,-6.9 1.91666,-1.91663 4.13999,-3.37329 6.67,-4.37 2.52999,-1.07329 5.28998,-1.60996 8.28,-1.61 2.75998,4e-5 5.44331,0.61337 8.05,1.84 2.6833,1.22671 5.13663,2.8367 7.36005,4.83 l 0,-9.66 c -1e-4,-1.30329 -0.38342,-2.49162 -1.15005,-3.565 -0.69003,-1.07328 -1.6867,-1.99328 -2.99,-2.76 -1.2267,-0.84328 -2.68336,-1.45661 -4.37,-1.84 -1.61003,-0.45995 -3.29669,-0.68995 -5.06,-0.69 -1.53335,5e-5 -3.10502,0.19172 -4.715,0.575 -1.53335,0.38339 -3.06668,0.84339 -4.6,1.38 -1.45668,0.46005 -2.83668,0.95838 -4.14,1.495 -1.30334,0.46005 -2.41501,0.84338 -3.335,1.15 l 2.185,-7.82 c 2.75999,-1.07328 5.44332,-1.91661 8.05,-2.53 2.68332,-0.61327 5.55831,-0.91994 8.625,-0.92 2.29997,6e-5 4.5233,0.30673 6.67,0.92 2.2233,0.61339 4.1783,1.53339 5.86505,2.76 1.6866,1.15006 3.0282,2.64505 4.025,4.485 1.0732,1.84005 1.6099,4.02505 1.61,6.555 l 0,44.39 -6.67,1.38"
           style="font-variant:normal;font-stretch:normal;text-align:start;line-height:864.00003433%;writing-mode:lr-tb;text-anchor:start;fill:#1793d1;font-family:KaratDemo;-inkscape-font-specification:KaratDemo"
           id="path3958"
           inkscape:connector-curvature="0"
           sodipodi:nodetypes="ccccccccscccccccccccsscccscccccccccccccccccccccccc" />
        <path
           d="m 1062.4554,-330.50307 c -1.9167,-1.68662 -4.2167,-3.02828 -6.9,-4.025 -2.6067,-0.99661 -5.5201,-1.49495 -8.74,-1.495 -3.68,5e-5 -7.015,0.61339 -10.005,1.84 -2.99,1.22672 -5.5584,2.91338 -7.705,5.06 -2.07,2.14671 -3.7184,4.67671 -4.945,7.59 -1.15,2.91337 -1.725,6.0567 -1.725,9.43 0,2.53003 0.46,5.17502 1.38,7.935 0.9966,2.68335 2.4533,5.17502 4.37,7.475 1.9166,2.30001 4.2933,4.17834 7.13,5.635 2.9133,1.45667 6.2866,2.18501 10.12,2.185 3.0666,10e-6 6.0183,-0.49833 8.855,-1.495 2.8366,-1.07332 5.4433,-2.52999 7.82,-4.37 l 4.14,5.175 c -0.7667,0.76667 -1.8401,1.61001 -3.22,2.53 -1.3801,0.84334 -2.9901,1.64834 -4.83,2.415 -1.7634,0.69 -3.7184,1.265 -5.865,1.725 -2.0701,0.46 -4.2551,0.69 -6.555,0.69 -4.2167,0 -8.165,-0.72833 -11.845,-2.185 -3.6034,-1.53333 -6.785,-3.64166 -9.545,-6.325 -2.6834,-2.75999 -4.7917,-6.01832 -6.325,-9.775 -1.5334,-3.75664 -2.3,-7.89664 -2.3,-12.42 0,-4.5233 0.8433,-8.62496 2.53,-12.305 1.7633,-3.67995 4.0633,-6.78495 6.9,-9.315 2.9133,-2.60661 6.2483,-4.59994 10.005,-5.98 3.7566,-1.45661 7.6666,-2.18494 11.73,-2.185 3.6033,6e-5 7.0533,0.65173 10.35,1.955 3.2966,1.22672 6.4016,2.83672 9.315,4.83 l -4.14,5.405"
           style="font-variant:normal;font-stretch:normal;text-align:start;line-height:864.00003433%;writing-mode:lr-tb;text-anchor:start;fill:#1793d1;font-family:KaratDemo;-inkscape-font-specification:KaratDemo"
           id="path3960"
           inkscape:connector-curvature="0" />
        <path
           d="m 1101.0954,-283.35307 c -1.4567,0.23 -2.5684,0.38333 -3.335,0.46 -0.69,0.15333 -1.5717,0.23 -2.645,0.23 -5.52,0 -9.66,-1.495 -12.42,-4.485 -2.6834,-2.98999 -4.025,-7.01499 -4.025,-12.075 l 0,-35.42 -7.705,0 1.61,-6.67 6.095,0 0,-14.145 6.67,-3.68 0,17.825 15.64,0 0,6.67 -15.64,0 0,35.42 c 0,3.75668 0.805,6.36334 2.415,7.82 1.6866,1.38001 4.4083,2.07001 8.165,2.07 0.8433,1e-5 1.61,1e-5 2.3,0 0.7666,1e-5 1.725,-0.0767 2.875,-0.23 l 0,6.21 0,0"
           style="font-variant:normal;font-stretch:normal;text-align:start;line-height:864.00003433%;writing-mode:lr-tb;text-anchor:start;fill:#1793d1;font-family:KaratDemo;-inkscape-font-specification:KaratDemo"
           id="path3962"
           inkscape:connector-curvature="0" />
        <path
           d="m 1142.8799,-299.91307 c 0,2.91335 -0.5367,5.48168 -1.61,7.705 -0.9967,2.14667 -2.415,3.98667 -4.255,5.52 -1.7634,1.45667 -3.91,2.56834 -6.44,3.335 -2.4533,0.76667 -5.175,1.15 -8.165,1.15 -3.45,0 -6.7083,-0.72833 -9.775,-2.185 -3.0667,-1.45666 -5.865,-3.64166 -8.395,-6.555 l 5.06,-4.255 c 2.3,2.22334 4.5617,3.83334 6.785,4.83 2.3,0.99667 4.7917,1.49501 7.475,1.495 4.2933,10e-6 7.475,-1.03499 9.545,-3.105 2.07,-2.06999 3.105,-4.56165 3.105,-7.475 0,-2.45331 -0.7667,-4.33165 -2.3,-5.635 -1.4567,-1.37998 -3.335,-2.45331 -5.635,-3.22 -2.2233,-0.84331 -4.6767,-1.57164 -7.36,-2.185 -2.6067,-0.68997 -5.06,-1.60997 -7.36,-2.76 -2.2233,-1.14997 -4.1017,-2.72163 -5.635,-4.715 -1.4567,-1.9933 -2.185,-4.71496 -2.185,-8.165 0,-2.37662 0.46,-4.56162 1.38,-6.555 0.9967,-1.99328 2.3383,-3.71828 4.025,-5.175 1.7633,-1.53328 3.7567,-2.72161 5.98,-3.565 2.3,-0.84327 4.7917,-1.26494 7.475,-1.265 1.38,6e-5 2.7217,0.11506 4.025,0.345 1.38,0.23006 2.76,0.61339 4.14,1.15 1.38,0.46006 2.7983,1.15006 4.255,2.07 1.5333,0.84339 3.22,1.91672 5.06,3.22 l -3.795,5.29 c -1.9934,-1.45662 -4.1017,-2.72162 -6.325,-3.795 -2.2233,-1.07328 -4.7533,-1.60995 -7.59,-1.61 -1.4567,5e-5 -2.9133,0.19172 -4.37,0.575 -1.38,0.30672 -2.645,0.88172 -3.795,1.725 -1.15,0.76672 -2.07,1.76338 -2.76,2.99 -0.69,1.22671 -1.035,2.72171 -1.035,4.485 0,2.45337 0.7283,4.29337 2.185,5.52 1.5333,1.2267 3.4117,2.22337 5.635,2.99 2.3,0.7667 4.7533,1.4567 7.36,2.07 2.6833,0.61337 5.1366,1.49503 7.36,2.645 2.3,1.15003 4.1783,2.76003 5.635,4.83 1.5333,1.99336 2.3,4.75335 2.3,8.28"
           style="font-variant:normal;font-stretch:normal;text-align:start;line-height:864.00003433%;writing-mode:lr-tb;text-anchor:start;fill:#1793d1;font-family:KaratDemo;-inkscape-font-specification:KaratDemo"
           id="path3964"
           inkscape:connector-curvature="0" />
      </g>
      <g
         style="font-size:36px;font-style:normal;font-weight:normal;line-height:864.00003433%;letter-spacing:0px;word-spacing:0px;fill:#4d4d4d;fill-opacity:1;stroke:none;font-family:Sans"
         id="text3938">
        <path
           d="m 529.99276,-325.74486 c -0.93338,-0.99996 -2.30004,-1.96662 -4.1,-2.9 -1.73337,-0.99996 -3.8667,-1.49996 -6.4,-1.5 -3.00003,4e-5 -5.76669,0.50004 -8.3,1.5 -2.46669,1.00004 -4.63335,2.40004 -6.5,4.2 -1.80002,1.80004 -3.23335,3.93337 -4.3,6.4 -1.00001,2.40003 -1.50001,5.03336 -1.5,7.9 -1e-5,1.66669 0.13332,3.03336 0.4,4.1 l 30.7,-19.7 0,0 m -29.1,24.9 c 1.66665,3.40001 4.09998,6.20001 7.3,8.4 3.19997,2.2 6.69997,3.3 10.5,3.3 2.9333,0 5.93329,-0.63333 9,-1.9 3.06662,-1.26666 6.39995,-3.39999 10,-6.4 l 0,7 c -0.80005,0.86667 -1.86672,1.73334 -3.2,2.6 -1.33338,0.8 -2.83338,1.53333 -4.5,2.2 -1.66671,0.66667 -3.43337,1.2 -5.3,1.6 -1.8667,0.46666 -3.70004,0.7 -5.5,0.7 -3.93336,0 -7.50003,-0.7 -10.7,-2.1 -3.20002,-1.4 -5.96668,-3.3 -8.3,-5.7 -2.26668,-2.39999 -4.03334,-5.23332 -5.3,-8.5 -1.20001,-3.26665 -1.80001,-6.76665 -1.8,-10.5 -10e-6,-3.86664 0.66666,-7.36663 2,-10.5 1.33332,-3.19996 3.16665,-5.93329 5.5,-8.2 2.39998,-2.26662 5.16665,-3.99995 8.3,-5.2 3.19997,-1.26662 6.66664,-1.89995 10.4,-1.9 2.26663,5e-5 4.4333,0.33338 6.5,1 2.06662,0.66672 3.96662,1.56671 5.7,2.7 1.73329,1.06671 3.23328,2.30004 4.5,3.7 1.33328,1.40004 2.36661,2.83337 3.1,4.3 l -38.2,23.4"
           style="font-size:100px;font-variant:normal;font-stretch:normal;text-align:start;line-height:864.00003433%;writing-mode:lr-tb;text-anchor:start;fill:#4d4d4d;font-family:KaratDemo;-inkscape-font-specification:KaratDemo"
           id="path3967"
           inkscape:connector-curvature="0" />
        <path
           d="m 583.89276,-325.34486 c -1.66671,-1.46663 -3.66671,-2.63329 -6,-3.5 -2.26671,-0.86662 -4.80004,-1.29996 -7.6,-1.3 -3.20003,4e-5 -6.10003,0.53338 -8.7,1.6 -2.60002,1.06671 -4.83335,2.53337 -6.7,4.4 -1.80002,1.8667 -3.23335,4.0667 -4.3,6.6 -1.00001,2.53336 -1.50001,5.26669 -1.5,8.2 -10e-6,2.20002 0.39999,4.50002 1.2,6.9 0.86665,2.33335 2.13332,4.50001 3.8,6.5 1.66665,2.00001 3.73331,3.63334 6.2,4.9 2.53331,1.26667 5.46664,1.9 8.8,1.9 2.66663,0 5.23329,-0.43333 7.7,-1.3 2.46662,-0.93333 4.73329,-2.19999 6.8,-3.8 l 3.6,4.5 c -0.66672,0.66667 -1.60005,1.4 -2.8,2.2 -1.20005,0.73333 -2.60005,1.43333 -4.2,2.1 -1.53338,0.6 -3.23337,1.1 -5.1,1.5 -1.80004,0.4 -3.70004,0.6 -5.7,0.6 -3.6667,0 -7.10003,-0.63333 -10.3,-1.9 -3.13335,-1.33333 -5.90002,-3.16666 -8.3,-5.5 -2.33335,-2.39999 -4.16668,-5.23332 -5.5,-8.5 -1.33334,-3.26665 -2.00001,-6.86665 -2,-10.8 -1e-5,-3.9333 0.73333,-7.49997 2.2,-10.7 1.53332,-3.19996 3.53332,-5.89996 6,-8.1 2.53332,-2.26662 5.43331,-3.99995 8.7,-5.2 3.26664,-1.26662 6.66664,-1.89995 10.2,-1.9 3.1333,5e-5 6.13329,0.56672 9,1.7 2.86662,1.06671 5.56662,2.46671 8.1,4.2 l -3.6,4.7"
           style="font-size:100px;font-variant:normal;font-stretch:normal;text-align:start;line-height:864.00003433%;writing-mode:lr-tb;text-anchor:start;fill:#4d4d4d;font-family:KaratDemo;-inkscape-font-specification:KaratDemo"
           id="path3969"
           inkscape:connector-curvature="0" />
        <path
           d="m 598.99276,-283.34486 0,-72.4 5.8,-1.2 0,72.4 -5.8,1.2"
           style="font-size:100px;font-variant:normal;font-stretch:normal;text-align:start;line-height:864.00003433%;writing-mode:lr-tb;text-anchor:start;fill:#4d4d4d;font-family:KaratDemo;-inkscape-font-specification:KaratDemo"
           id="path3971"
           inkscape:connector-curvature="0" />
        <path
           d="m 621.25838,-283.34486 0,-51.4 5.8,-1.2 0,51.4 -5.8,1.2 m 2.4,-63.2 -4.6,-5.2 4.6,-5.2 4.6,5.2 -4.6,5.2"
           style="font-size:100px;font-variant:normal;font-stretch:normal;text-align:start;line-height:864.00003433%;writing-mode:lr-tb;text-anchor:start;fill:#4d4d4d;font-family:KaratDemo;-inkscape-font-specification:KaratDemo"
           id="path3973"
           inkscape:connector-curvature="0" />
        <path
           d="m 687.32401,-309.44486 c -6e-5,-3.06664 -0.53339,-5.86664 -1.6,-8.4 -1.00005,-2.59996 -2.40005,-4.79996 -4.2,-6.6 -1.80005,-1.79996 -3.93338,-3.19996 -6.4,-4.2 -2.40004,-0.99996 -5.00004,-1.49996 -7.8,-1.5 -2.93337,4e-5 -5.6667,0.60004 -8.2,1.8 -2.46669,1.13338 -4.60002,2.66671 -6.4,4.6 -1.80002,1.8667 -3.20002,4.03337 -4.2,6.5 -1.00002,2.40003 -1.50002,4.86669 -1.5,7.4 -2e-5,3.33335 0.56665,6.30002 1.7,8.9 1.13331,2.60001 2.63331,4.76668 4.5,6.5 1.86664,1.73334 3.99997,3.06667 6.4,4 2.46664,0.86667 5.0333,1.3 7.7,1.3 3.06663,0 5.83329,-0.6 8.3,-1.8 2.53329,-1.19999 4.63328,-2.76666 6.3,-4.7 1.73328,-1.99999 3.06661,-4.19999 4,-6.6 0.93328,-2.39998 1.39994,-4.79998 1.4,-7.2 m 5.8,0.1 c -6e-5,3.53335 -0.66673,6.90002 -2,10.1 -1.33339,3.13334 -3.16672,5.90001 -5.5,8.3 -2.26672,2.33334 -5.00005,4.2 -8.2,5.6 -3.20004,1.33333 -6.63337,2 -10.3,2 -3.20003,0 -6.60003,-0.63333 -10.2,-1.9 -3.53336,-1.33333 -6.76669,-3.8 -9.7,-7.4 l -0.2,0 0,25.3 -5.8,1.2 0,-68.6 5.8,-1.2 0,11.6 0.2,0 c 0.86665,-1.66663 1.99998,-3.19996 3.4,-4.6 1.39998,-1.46662 2.96664,-2.69995 4.7,-3.7 1.73331,-1.06662 3.56664,-1.86662 5.5,-2.4 1.99997,-0.59995 3.99997,-0.89995 6,-0.9 3.66663,5e-5 7.09996,0.70005 10.3,2.1 3.19995,1.40005 5.96661,3.33338 8.3,5.8 2.39994,2.40004 4.26661,5.23337 5.6,8.5 1.39994,3.20003 2.09994,6.60003 2.1,10.2"
           style="font-size:100px;font-variant:normal;font-stretch:normal;text-align:start;line-height:864.00003433%;writing-mode:lr-tb;text-anchor:start;fill:#4d4d4d;font-family:KaratDemo;-inkscape-font-specification:KaratDemo"
           id="path3975"
           inkscape:connector-curvature="0" />
        <path
           d="m 731.75682,-298.74486 c -4e-5,2.53334 -0.4667,4.76668 -1.4,6.7 -0.8667,1.86667 -2.10003,3.46667 -3.7,4.8 -1.53336,1.26667 -3.40003,2.23333 -5.6,2.9 -2.13336,0.66666 -4.50002,1 -7.1,1 -3.00002,0 -5.83335,-0.63333 -8.5,-1.9 -2.66668,-1.26667 -5.10001,-3.16666 -7.3,-5.7 l 4.4,-3.7 c 1.99999,1.93334 3.96665,3.33334 5.9,4.2 1.99998,0.86667 4.16665,1.3 6.5,1.3 3.73331,0 6.49997,-0.9 8.3,-2.7 1.79997,-1.79999 2.69997,-3.96666 2.7,-6.5 -3e-5,-2.13332 -0.6667,-3.76665 -2,-4.9 -1.2667,-1.19998 -2.90003,-2.13331 -4.9,-2.8 -1.93336,-0.73331 -4.06669,-1.36664 -6.4,-1.9 -2.26668,-0.59998 -4.40001,-1.39998 -6.4,-2.4 -1.93334,-0.99997 -3.56668,-2.36664 -4.9,-4.1 -1.26667,-1.7333 -1.90001,-4.09997 -1.9,-7.1 -10e-6,-2.06663 0.39999,-3.96663 1.2,-5.7 0.86666,-1.73329 2.03332,-3.23329 3.5,-4.5 1.53332,-1.33329 3.26665,-2.36662 5.2,-3.1 1.99998,-0.73328 4.16665,-1.09995 6.5,-1.1 1.19998,5e-5 2.36664,0.10005 3.5,0.3 1.19997,0.20005 2.39997,0.53338 3.6,1 1.19997,0.40005 2.4333,1.00005 3.7,1.8 1.3333,0.73338 2.79996,1.66671 4.4,2.8 l -3.3,4.6 c -1.73337,-1.26663 -3.5667,-2.36662 -5.5,-3.3 -1.93336,-0.93329 -4.13336,-1.39996 -6.6,-1.4 -1.26669,4e-5 -2.53335,0.16671 -3.8,0.5 -1.20002,0.26671 -2.30002,0.76671 -3.3,1.5 -1.00001,0.66671 -1.80001,1.53337 -2.4,2.6 -0.60001,1.06671 -0.90001,2.3667 -0.9,3.9 -10e-6,2.13337 0.63332,3.73337 1.9,4.8 1.33332,1.0667 2.96665,1.93336 4.9,2.6 1.99998,0.66669 4.13331,1.26669 6.4,1.8 2.33331,0.53336 4.46664,1.30003 6.4,2.3 1.99997,1.00002 3.6333,2.40002 4.9,4.2 1.3333,1.73335 1.99996,4.13335 2,7.2"
           style="font-size:100px;font-variant:normal;font-stretch:normal;text-align:start;line-height:864.00003433%;writing-mode:lr-tb;text-anchor:start;fill:#4d4d4d;font-family:KaratDemo;-inkscape-font-specification:KaratDemo"
           id="path3977"
           inkscape:connector-curvature="0" />
        <path
           d="m 774.52401,-325.74486 c -0.93338,-0.99996 -2.30004,-1.96662 -4.1,-2.9 -1.73337,-0.99996 -3.8667,-1.49996 -6.4,-1.5 -3.00003,4e-5 -5.76669,0.50004 -8.3,1.5 -2.46669,1.00004 -4.63335,2.40004 -6.5,4.2 -1.80002,1.80004 -3.23335,3.93337 -4.3,6.4 -1.00001,2.40003 -1.50001,5.03336 -1.5,7.9 -10e-6,1.66669 0.13332,3.03336 0.4,4.1 l 30.7,-19.7 0,0 m -29.1,24.9 c 1.66665,3.40001 4.09998,6.20001 7.3,8.4 3.19997,2.2 6.69997,3.3 10.5,3.3 2.9333,0 5.93329,-0.63333 9,-1.9 3.06662,-1.26666 6.39995,-3.39999 10,-6.4 l 0,7 c -0.80005,0.86667 -1.86672,1.73334 -3.2,2.6 -1.33338,0.8 -2.83338,1.53333 -4.5,2.2 -1.66671,0.66667 -3.43337,1.2 -5.3,1.6 -1.8667,0.46666 -3.70004,0.7 -5.5,0.7 -3.93336,0 -7.50003,-0.7 -10.7,-2.1 -3.20002,-1.4 -5.96668,-3.3 -8.3,-5.7 -2.26668,-2.39999 -4.03334,-5.23332 -5.3,-8.5 -1.20001,-3.26665 -1.80001,-6.76665 -1.8,-10.5 -10e-6,-3.86664 0.66666,-7.36663 2,-10.5 1.33332,-3.19996 3.16665,-5.93329 5.5,-8.2 2.39998,-2.26662 5.16665,-3.99995 8.3,-5.2 3.19997,-1.26662 6.66664,-1.89995 10.4,-1.9 2.26663,5e-5 4.4333,0.33338 6.5,1 2.06662,0.66672 3.96662,1.56671 5.7,2.7 1.73329,1.06671 3.23328,2.30004 4.5,3.7 1.33328,1.40004 2.36661,2.83337 3.1,4.3 l -38.2,23.4"
           style="font-size:100px;font-variant:normal;font-stretch:normal;text-align:start;line-height:864.00003433%;writing-mode:lr-tb;text-anchor:start;fill:#4d4d4d;font-family:KaratDemo;-inkscape-font-specification:KaratDemo"
           id="path3979"
           inkscape:connector-curvature="0" />
      </g>
    </g>
  </g>
  <g
     inkscape:groupmode="layer"
     id="layer2"
     inkscape:label="eclipse (hand-made)"
     style="display:inline">
    <g
       id="g3914"
       transform="translate(-215.92219,3.0790859)">
      <path
         style="fill:#4d4d4d;fill-opacity:1;fill-rule:evenodd;stroke:none"
         d="m 349.18721,-129.62324 -10.21875,8.65625 8.65625,10.21875 10.21875,-8.65625 -8.65625,-10.21875 z m 5.9375,19.875 -13.53125,2.3125 -0.0625,57.375 13.5625,-2.625 0.0312,-57.0625 z"
         id="path3057"
         inkscape:connector-curvature="0" />
      <path
         sodipodi:nodetypes="cccccc"
         inkscape:connector-curvature="0"
         style="fill:#4d4d4d;fill-opacity:1;fill-rule:evenodd;stroke:none"
         id="path3059"
         d="m 309.25749,-125.11236 -0.0865,75.05317 13.58333,-3.41609 0.0154,-74.67501 -13.5123,3.03793 z" />
      <path
         d="m 202.96474,-50.05919 c 12.68714,0 21.53837,-8.32132 21.47078,-8.27572 l -4.87746,-11.07326 c -3.633,2.9472 -8.7755,5.28138 -14.48581,6.56954 -9.45398,2.13554 -11.54688,-2.12973 -12.53871,-6.55005 -0.22722,-0.21389 3.46018,3.31718 11.59989,1.31969 10.26831,-2.52181 23.69222,-10.12518 19.59985,-25.54896 -4.30554,-17.42806 -18.89292,-19.03872 -27.93476,-16.75224 -8.06754,2.2874 -10.47377,6.33856 -12.14256,8.45374 -4.39842,6.80136 -6.34281,19.8372 -1.88195,34.75356 4.46086,14.91636 8.80551,17.1037 21.19073,17.1037 z m 0.87818,-30.66014 c -5.1262,1.27813 -11.64826,0.30676 -13.25641,-5.75091 -1.48131,-5.50491 4.66745,-10.29778 9.18732,-11.44074 4.52175,-1.14351 11.42762,0.77436 12.87245,6.14076 1.18142,4.82602 -3.45586,9.7716 -8.80336,11.05089 z"
         id="path3061"
         style="fill:#4d4d4d;fill-opacity:1;fill-rule:evenodd;stroke:none"
         inkscape:connector-curvature="0"
         sodipodi:nodetypes="ccccccccczcccccc" />
      <path
         d="m 284.47464,-103.4482 c -0.14336,-0.0673 -6.32901,-4.91211 -16.6583,-5.42363 -14.31137,-0.23788 -30.36381,5.31056 -30.62074,29.30772 0.12529,21.09872 15.4203,29.34415 30.70168,29.50492 16.3535,0.16989 22.86056,-10.2259 23.25087,-10.48352 -1.9513,-1.69159 -9.25988,-8.93361 -9.25988,-8.93361 0,0 -4.56489,6.50004 -13.42182,6.58267 -8.85903,0.0843 -16.55966,-6.84717 -16.66878,-16.51871 -0.11353,-9.67162 7.07901,-14.9115 16.73528,-15.33475 8.35985,-0.002 15.30419,6.1038 15.30419,6.1038 z"
         id="path3063"
         style="fill:#4d4d4d;fill-opacity:1;fill-rule:evenodd;stroke:none"
         inkscape:connector-curvature="0"
         sodipodi:nodetypes="ccccccccccc" />
      <path
         style="fill:#4d4d4d;fill-opacity:1;fill-rule:evenodd;stroke:none"
         d="m 386.99543,-110.80919 -14.03125,3.15625 -0.0625,77.78125 14.0625,-3.5625 0,-18.875 c 3.77321,1.48562 8.74872,2.60372 14.875,2.25 14.29846,-0.65257 29.95464,-7.18956 28.71875,-31.15625 -1.43713,-21.05009 -17.20695,-28.32111 -32.46875,-27.53125 -4.44277,0.23052 -8.10174,1.21076 -11.09375,2.5 z m 12.96875,14.875 c 8.1755,0.21948 15.3653,6.45684 16.03125,15.5 0.71477,9.64584 -6.13874,15.32082 -15.75,16.34375 -4.1131,0.48789 -10.1231,-0.90552 -13.28125,-4.375 -8.26224,-9.07675 -2.40215,-19.91109 0.0312,-22.0625 3.12768,-2.7653 5.64423,-4.9687 11.3125,-5.375 0.55229,-0.0397 1.11122,-0.0459 1.65625,-0.0312 z"
         id="path3065"
         inkscape:connector-curvature="0"
         sodipodi:nodetypes="cccccccccccccssccc" />
      <path
         style="fill:#4d4d4d;fill-opacity:1;fill-rule:evenodd;stroke:none"
         d="m 469.6872,-108.37324 c -12.87006,0.23862 -26.05688,4.236 -26.29775,17.01425 0.11705,11.19568 15.23841,14.54546 16.64151,15.04825 6.57177,2.4257 17.2012,5.50763 16.53124,11.5625 -0.93825,5.43727 -14.84542,5.16498 -17.52772,3.91973 -4.78557,-0.90289 -15.64503,-8.91199 -15.64503,-8.91199 l 1.87649,17.07834 c 0,0 2.12572,0.57416 12.26502,2.25767 14.09932,2.06856 30.54665,1.10554 33.40624,-12.3125 2.13292,-11.65546 -6.36079,-16.03514 -20.625,-20.5625 -3.56247,-1.1307 -13.94098,-3.33823 -14.01804,-7.21736 -0.11353,-5.49338 5.01711,-7.21197 17.29837,-6.57737 7.60985,0.37416 14.54197,4.78033 14.54197,4.78033 l -2.49543,-13.16238 c -0.14336,-0.0382 -2.96633,-2.62643 -13.29562,-2.91697 -0.89446,-0.008 -1.79825,-0.0159 -2.65625,0 z"
         id="path3067"
         inkscape:connector-curvature="0"
         sodipodi:nodetypes="sccccccccscccccs" />
      <path
         sodipodi:nodetypes="ccccccccczcccccc"
         inkscape:connector-curvature="0"
         style="fill:#4d4d4d;fill-opacity:1;fill-rule:evenodd;stroke:none"
         id="path3863"
         d="m 523.71473,-49.583074 c 12.68714,0 21.53837,-8.32132 21.47078,-8.27572 l -4.87746,-11.07326 c -3.633,2.9472 -8.7755,5.28138 -14.48581,6.56954 -9.45398,2.13554 -11.54688,-2.12973 -12.53871,-6.55005 -0.22722,-0.21389 3.46018,3.31718 11.59989,1.31969 10.26831,-2.52181 23.69222,-10.12518 19.59985,-25.54896 -4.30554,-17.428056 -18.89292,-19.038716 -27.93476,-16.752236 -8.06754,2.2874 -10.47377,6.33856 -12.14256,8.45374 -4.39842,6.801356 -6.34281,19.837196 -1.88195,34.753556 4.46086,14.91636 8.80551,17.1037 21.19073,17.1037 z m 0.87818,-30.66014 c -5.1262,1.27813 -11.64826,0.30676 -13.25641,-5.75091 -1.48131,-5.50491 4.66745,-10.29778 9.18732,-11.44074 4.52175,-1.14351 11.42762,0.77436 12.87245,6.14076 1.18142,4.82602 -3.45586,9.7716 -8.80336,11.05089 z" />
    </g>
  </g>
  <g
     inkscape:groupmode="layer"
     id="layer4"
     inkscape:label="archlinux logo"
     style="display:inline">
    <g
       id="g4016">
      <path
         inkscape:connector-curvature="0"
         style="fill:#1793d1;fill-opacity:1;fill-rule:evenodd;stroke:none"
         id="path2518"
         d="m 103.9785,22.738316 c -7.396865,18.135158 -11.858299,29.997682 -20.093745,47.59375 5.04936,5.35232 11.247211,11.585364 21.312495,18.625 -10.821168,-4.452846 -18.202532,-8.923398 -23.718745,-13.5625 -10.5398,21.992913 -27.052636,53.320844 -60.5625,113.531254 26.337628,-15.20517 46.754089,-24.57932 65.78125,-28.15625 -0.817034,-3.51405 -1.28155,-7.31518 -1.25,-11.28125 l 0.03125,-0.84375 c 0.417917,-16.87382 9.195665,-29.84979 19.593745,-28.96875 10.39809,0.88104 18.48041,15.28242 18.0625,32.15625 -0.0786,3.17512 -0.43674,6.22955 -1.0625,9.0625 18.82058,3.68164 39.01873,13.03179 65,28.03125 -5.123,-9.4318 -9.69572,-17.93388 -14.0625,-26.03125 -6.87839,-5.33121 -14.05289,-12.2698 -28.6875,-19.78125 10.05899,2.61375 17.2611,5.62932 22.875,9 C 122.79897,69.451477 119.20366,58.467425 103.9785,22.738316 z" />
      <g
         id="g3997">
        <g
           id="g3981">
          <path
             d="m 199.69806,74.060534 c -8.07351,-0.01333 -14.7737,1.642255 -17.36444,2.545391 l -2.66743,14.400634 c -0.006,0.05306 13.27532,-3.541816 19.12529,-3.329928 9.68592,0.348019 10.57738,3.701854 10.40821,8.228934 0.16511,0.264787 -2.49899,-4.090433 -10.87893,-4.236507 -10.57187,-0.182358 -25.49175,3.743172 -25.47134,19.700622 -0.28501,17.94975 13.4082,23.23005 22.73417,23.32694 8.38415,-0.15266 12.31702,-3.17517 14.47038,-4.7944 2.82921,-2.95815 6.06602,-5.9329 9.15294,-9.50163 -2.92095,5.30712 -5.45325,8.9764 -8.08946,11.78551 l 0,2.37105 12.74439,-2.14441 0.0872,-34.641718 c -0.1291,-4.902988 2.81247,-23.664891 -24.25095,-23.710488 z m -1.83059,30.161136 c 5.28264,0.0725 11.3408,2.67626 11.34966,8.94374 0.0273,5.70067 -7.14107,8.76553 -11.80295,8.71709 -4.66386,-0.0484 -10.85155,-3.66527 -10.87893,-9.22269 0.0894,-4.96773 5.83531,-8.566 11.33222,-8.43814 z"
             id="path2284"
             style="fill:#4d4d4d;fill-opacity:1;fill-rule:evenodd;stroke:none"
             inkscape:connector-curvature="0" />
          <path
             d="m 232.35288,77.261562 -0.0865,57.366508 14.84674,-2.86045 0.025,-32.52609 c 0.003,-4.843015 6.92097,-10.502078 15.60022,-10.4119 1.84217,-3.332903 5.30484,-11.850887 6.14848,-13.788425 -19.39043,-0.04647 -19.63729,5.573321 -23.00977,8.337819 -0.0352,-5.273687 -0.0119,-8.439489 -0.0119,-8.439489 l -13.5123,2.322027 z"
             id="path2286"
             style="fill:#4d4d4d;fill-opacity:1;fill-rule:evenodd;stroke:none"
             inkscape:connector-curvature="0" />
          <path
             d="m 315.90738,84.792643 c -0.14336,-0.06733 -7.74322,-8.889586 -23.02226,-8.959161 -14.31137,-0.237875 -30.36381,5.310563 -30.62074,29.307728 0.12529,21.09872 15.4203,29.34415 30.70168,29.50492 16.3535,0.16989 22.86056,-10.2259 23.25087,-10.48352 -1.9513,-1.69159 -9.25988,-8.93361 -9.25988,-8.93361 0,0 -4.56489,6.50004 -13.42182,6.58267 -8.85903,0.0843 -16.55966,-6.84717 -16.66878,-16.51871 -0.11353,-9.67162 7.07901,-14.911504 16.73528,-15.334756 8.35985,-0.0017 13.18287,5.396697 13.18287,5.396697 l 9.12278,-10.562258 z"
             id="path2288"
             style="fill:#4d4d4d;fill-opacity:1;fill-rule:evenodd;stroke:none"
             inkscape:connector-curvature="0" />
          <path
             d="m 334.6212,57.184245 -14.01708,3.295061 0.1046,74.722904 13.80787,-2.49309 0.15691,-35.164742 c 0.0295,-3.687271 5.33418,-9.349832 14.19143,-9.17038 8.46867,0.08801 10.3614,5.644586 10.33847,6.346042 l 0.24408,40.70882 13.61609,-2.40592 0.0523,-43.167037 c 0.0896,-4.153737 -9.09832,-12.926143 -23.8674,-12.988466 -7.01879,0.01127 -10.90579,1.600179 -12.88386,2.772036 -3.3845,2.614095 -7.25251,5.118915 -11.05327,8.316105 3.51366,-4.513914 6.46348,-7.634867 9.34472,-9.954919 l -0.0349,-20.816414 z"
             id="path2290"
             style="fill:#4d4d4d;fill-opacity:1;fill-rule:evenodd;stroke:none"
             inkscape:connector-curvature="0" />
        </g>
        <g
           id="g3987">
          <path
             d="m 384.94286,59.123203 6.32229,-1.582316 0.29915,75.333273 -6.42343,1.09378 -0.19801,-74.844737 z"
             id="path2292"
             style="fill:#1793d1;fill-opacity:1;fill-rule:evenodd;stroke:none"
             inkscape:connector-curvature="0" />
          <path
             d="m 402.1326,81.606812 5.54079,-2.466868 0.0474,54.016626 -5.35121,1.10607 -0.23699,-52.655828 z m -1.31683,-19.478535 4.46773,-3.646846 3.71129,4.129358 -4.46959,3.743384 -3.70943,-4.225896 z"
             id="path2294"
             style="fill:#1793d1;fill-opacity:1;fill-rule:evenodd;stroke:none"
             inkscape:connector-curvature="0" />
          <path
             d="m 418.09263,80.622749 6.32302,-1.290143 0.0299,11.292567 c 10e-4,0.484974 3.47169,-12.615278 20.21422,-12.323966 16.25588,0.09046 18.91525,12.675326 18.82723,15.496799 l 0.20052,39.710324 -5.54199,1.20284 -0.0321,-39.22359 c 0.0642,-1.145462 -2.53321,-10.831861 -14.02073,-10.867484 -11.4854,-0.03337 -19.44347,8.342502 -19.42934,13.693748 l 0.0915,34.553466 -6.42188,1.67776 -0.2403,-53.922321 z"
             id="path2296"
             style="fill:#1793d1;fill-opacity:1;fill-rule:evenodd;stroke:none"
             inkscape:connector-curvature="0" />
          <path
             d="m 518.8597,133.79408 -6.32306,1.29002 -0.0298,-11.29238 c -10e-4,-0.48518 -3.47385,12.61525 -20.21424,12.32389 -16.25586,-0.0904 -18.91523,-12.67525 -18.82721,-15.49673 l -0.20054,-39.710575 6.71787,-1.356426 0.10374,39.224311 c 0.003,1.07111 1.28572,10.98498 12.77321,11.02034 11.48541,0.0335 19.53186,-6.91618 19.58886,-17.38145 l -0.0819,-30.947573 6.25283,-1.595696 0.24028,53.922269 z"
             id="path2298"
             style="fill:#1793d1;fill-opacity:1;fill-rule:evenodd;stroke:none"
             inkscape:connector-curvature="0" />
          <path
             d="m 531.25143,80.177264 -4.43347,3.469135 16.99813,22.245571 -18.13011,25.70047 4.70362,3.49047 17.04328,-23.86726 17.58987,24.43295 4.35096,-3.46985 -18.85097,-26.12372 15.03865,-21.125764 -4.62444,-3.910292 -13.69936,19.548426 -15.98616,-20.390136 z"
             id="path2300"
             style="fill:#1793d1;fill-opacity:1;fill-rule:evenodd;stroke:none"
             inkscape:connector-curvature="0" />
          <g
             transform="matrix(0.8746356,0,0,0.8746356,-21.88079,-100.28014)"
             style="font-size:8.44138241px;font-style:normal;font-weight:normal;fill:#1793d1;fill-opacity:1;stroke:none;font-family:DejaVu Sans Mono"
             id="text2634">
            <path
               inkscape:connector-curvature="0"
               style="fill:#1793d1;fill-opacity:1"
               id="path3945"
               d="m 685.46692,263.83624 0,-5.32944 -1.99082,0 0,-0.71307 4.7895,0 0,0.71307 -1.99906,0 0,5.32944 -0.79962,0" />
            <path
               inkscape:connector-curvature="0"
               style="fill:#1793d1;fill-opacity:1"
               id="path3947"
               d="m 689.0982,263.83624 0,-6.04251 1.20355,0 1.43026,4.2784 c 0.13189,0.39843 0.22806,0.69658 0.28852,0.89442 0.0687,-0.21983 0.17586,-0.5427 0.3215,-0.96862 l 1.44674,-4.2042 1.07578,0 0,6.04251 -0.77077,0 0,-5.05741 -1.75587,5.05741 -0.72131,0 -1.74763,-5.14396 0,5.14396 -0.77077,0" />
          </g>
        </g>
        <g
           id="text2638"
           style="font-size:8.25130367px;font-style:normal;font-weight:normal;fill:#1793d1;fill-opacity:1;stroke:none;font-family:DejaVu Sans Mono"
           transform="matrix(0.8746356,0,0,0.8746356,-21.88079,-100.28014)">
          <path
             d="m 239.84053,313.69965 0,-5.20945 -1.94598,0 0,-0.697 4.68164,0 0,0.697 -1.95404,0 0,5.20945 -0.78162,0"
             id="path3940"
             style="fill:#1793d1;fill-opacity:1"
             inkscape:connector-curvature="0" />
          <path
             d="m 243.39004,313.69965 0,-5.90645 1.17646,0 1.39805,4.18205 c 0.12892,0.38947 0.22293,0.6809 0.28202,0.87429 0.0671,-0.21488 0.1719,-0.53048 0.31426,-0.94681 l 1.41417,-4.10953 1.05155,0 0,5.90645 -0.75341,0 0,-4.94353 -1.71634,4.94353 -0.70506,0 -1.70828,-5.02814 0,5.02814 -0.75342,0"
             id="path3942"
             style="fill:#1793d1;fill-opacity:1"
             inkscape:connector-curvature="0" />
        </g>
      </g>
    </g>
  </g>
</svg>
